<svg width="145mm" height="50mm" viewBox="0 0 145 50" xml:space="preserve" xmlns="http://www.w3.org/2000/svg"><g transform="translate(-28.803 -122.6)"><text xml:space="preserve" style="font-size:16.7938px;line-height:1.05;font-family:'Shree Devanagari 714';-inkscape-font-specification:'Shree Devanagari 714, ';letter-spacing:0;word-spacing:0;fill:#f75c03;fill-opacity:1;stroke-width:.419845" x="77.047" y="148.587" transform="matrix(.99941 0 0 1.00059 .901 -4.026)"><tspan style="font-style:normal;font-variant:normal;font-weight:700;font-stretch:normal;font-size:16.7938px;font-family:Outfit;-inkscape-font-specification:'Outfit Bold';font-variant-ligatures:normal;font-variant-caps:normal;font-variant-numeric:normal;font-variant-east-asian:normal;fill:#f75c03;fill-opacity:1;stroke-width:.419845" x="77.047" y="148.587">Sagarawat</tspan><tspan style="font-style:normal;font-variant:normal;font-weight:700;font-stretch:normal;font-size:16.7938px;font-family:Outfit;-inkscape-font-specification:'Outfit Bold';font-variant-ligatures:normal;font-variant-caps:normal;font-variant-numeric:normal;font-variant-east-asian:normal;fill:#f75c03;fill-opacity:1;stroke-width:.419845" x="77.047" y="166.326">Electricals</tspan></text><g style="fill:#f75c03;fill-opacity:1" transform="matrix(.30859 0 0 .30895 -199.141 53.192)"><path style="fill:#f75c03;fill-opacity:1;fill-rule:evenodd;stroke:#f60;stroke-width:0;stroke-linejoin:round" d="M828.2 341.39a33.033 49.638 42.9 0 0 47.758-51.45 33.033 49.638 42.9 0 0-34.262-31.757 33.033 49.638 42.9 0 0-47.757 51.45 33.033 49.638 42.9 0 0 34.262 31.757zm.54-3.32a30.397 45.677 42.9 0 1-31.529-29.223 30.397 45.677 42.9 0 1 43.947-47.345 30.397 45.677 42.9 0 1 31.528 29.223 30.397 45.677 42.9 0 1-43.947 47.345z"/><rect style="fill:#f75c03;fill-opacity:1;stroke-width:4" width="50.311" height="8.512" x="823.489" y="284.033" ry="4.256"/><rect style="fill:#f75c03;fill-opacity:1;stroke-width:4" width="50.311" height="8.512" x="823.489" y="318.081" ry="4.256"/><rect style="fill:#f75c03;fill-opacity:1;stroke-width:4" width="50.311" height="8.512" x="823.489" y="300.482" ry="4.256"/><rect style="fill:#f75c03;fill-opacity:1;stroke-width:4" width="7.685" height="23.306" x="771.071" y="284.144" ry="3.665"/><rect style="fill:#f75c03;fill-opacity:1;stroke-width:4" width="47.683" height="7.33" x="771.071" y="319.102" ry="3.665"/><rect style="fill:#f75c03;fill-opacity:1;stroke-width:4.14974" width="7.685" height="25.083" x="811.069" y="301.349" ry="3.945"/><rect style="fill:#f75c03;fill-opacity:1;stroke-width:4" width="47.683" height="7.33" x="771.071" y="284.144" ry="3.665"/><rect style="fill:#f75c03;fill-opacity:1;stroke-width:4" width="47.683" height="7.33" x="771.071" y="300.871" ry="3.665"/></g><text xml:space="preserve" style="font-style:normal;font-variant:normal;font-weight:400;font-stretch:normal;font-size:1.94019px;line-height:1.25;font-family:'Lucida Calligraphy';-inkscape-font-specification:'Lucida Calligraphy';letter-spacing:0;word-spacing:0;stroke-width:.0485048" x="783.687" y="353.985" transform="matrix(.30859 0 0 .30895 -199.141 53.192)"><tspan x="783.687" y="353.985" style="font-style:normal;font-variant:normal;font-weight:400;font-stretch:normal;font-size:9.31293px;font-family:Gilroy-Medium;-inkscape-font-specification:Gilroy-Medium;font-variant-ligatures:normal;font-variant-caps:normal;font-variant-numeric:normal;font-variant-east-asian:normal;stroke-width:.0485048">A Tradition Of Trust</tspan></text><rect style="fill:none;fill-opacity:1;stroke:#000;stroke-width:1.23599" width="143.764" height="48.764" x="29.421" y="123.218" ry="9.26"/></g></svg>